<svg width="203" height="203" viewBox="0 0 203 203" fill="none" xmlns="http://www.w3.org/2000/svg">
<path d="M5.12012 79.7852V186.455C5.12012 189.284 6.24374 191.997 8.24381 193.997C10.2439 195.997 12.9566 197.12 15.7851 197.12H186.455C189.284 197.12 191.996 195.997 193.996 193.997C195.996 191.997 197.12 189.284 197.12 186.455V79.7852M5.12012 79.7852H197.12M5.12012 79.7852V37.1203C5.12012 34.2918 6.24374 31.5791 8.24381 29.579C10.2439 27.579 12.9566 26.4553 15.7851 26.4553H186.455C189.284 26.4553 191.996 27.579 193.996 29.579C195.996 31.5791 197.12 34.2918 197.12 37.1203V79.7852" stroke="#2F4A3F" stroke-width="10.24" stroke-linecap="round" stroke-linejoin="round"/>
<path d="M143.785 5.12012V47.7851M58.4551 5.12012V47.7851" stroke="#C48A5A" stroke-width="10.24" stroke-linecap="round" stroke-linejoin="round"/>
</svg>
