<svg width="14" height="14" viewBox="0 0 46 48" fill="none" xmlns="http://www.w3.org/2000/svg">
<path d="M22.0002 43.0637C20.6836 30.4837 16.2602 26.0637 2.00024 23.0637C14.2602 19.0637 18.6836 14.6437 22.0002 3.06372C25.3169 14.6437 29.7402 19.0637 42.0002 23.0637C29.7402 27.0637 25.3169 31.4837 22.0002 43.0637Z" fill="#C48A5A"/>
<path d="M2.30905 21.5959C2.10318 22.5744 1.89731 23.553 1.69144 24.5316C3.56675 25.2672 5.41088 26.0254 7.14128 26.8485C14.659 30.0987 17.1608 34.8429 17.9187 42.5678C17.955 42.8651 17.9895 43.1692 18.0223 43.4801C18.5003 48.053 24.5788 48.585 25.8453 44.165C28.1034 34.5857 33.6007 29.5604 43.151 26.5908C46.9274 25.3957 46.9056 20.7987 43.151 19.5367C33.5839 17.0141 27.3941 11.9582 24.7658 2.27162C23.9419 -0.769729 20.1457 -0.744783 19.2346 2.27162C17.5776 9.82893 14.0466 16.016 6.92079 19.2649C5.19141 20.1464 3.39482 20.9131 1.53498 21.6377C1.84516 22.5884 2.15533 23.5391 2.4655 24.4897C4.46037 23.9543 6.42492 23.3588 8.40193 22.5948C16.5173 20.1653 22.6982 11.6737 24.7658 3.85582L19.2346 3.85582C20.4821 8.82094 22.3244 14.3075 26.5506 18.5591C30.7615 22.7821 35.9931 24.8708 40.8495 26.5908L40.8495 19.5367C35.9357 21.0843 30.6164 22.9765 26.1606 27.1644C21.6864 31.3885 19.598 36.9839 18.1551 41.9624L25.9782 42.6474C25.9413 42.2927 25.9018 41.9427 25.8596 41.597C25.3184 37.3624 24.2391 32.5389 20.8547 28.5764C17.4444 24.6091 12.7193 23.0254 8.58106 22.2695C6.4785 21.8893 4.38603 21.6933 2.30905 21.5959ZM1.69144 24.5316L2.30905 21.5959L2.4655 24.4897L1.53498 21.6377C-0.0705041 22.0653 0.087802 24.097 1.69144 24.5316Z" fill="#C48A5A"/>
<circle cx="4" cy="39.0641" r="4" fill="#C48A5A"/>
</svg>
