<svg width="45" height="47" viewBox="0 0 45 47" fill="none" xmlns="http://www.w3.org/2000/svg">
<path d="M36.5226 16.1901C37.0916 17.2397 38.0501 18.0076 39.2036 18.3152C40.3562 18.6235 41.6094 18.4462 42.6711 17.8321C43.7328 17.2179 44.5113 16.2199 44.8187 15.0671C45.1271 13.9137 44.9393 12.7001 44.3131 11.6836C44.3131 11.6836 44.3131 11.6836 44.3131 11.6836C43.2199 9.887 41.8988 8.23984 40.3959 6.79026C35.8014 2.31779 29.3881 -0.170719 23.0935 0.00910306C10.3207 0.0136223 -0.580133 11.6687 0.0240819 23.9368C0.038614 36.2515 11.2834 46.7422 23.0935 46.1479C28.2823 46.0408 33.37 44.0203 37.1712 40.6193C38.5711 39.3757 39.806 37.9565 40.8385 36.4083C41.0793 36.0452 41.1657 35.5953 41.0844 35.1614C41.0027 34.7273 40.76 34.3449 40.4039 34.0942C40.0478 33.8435 39.6059 33.7439 39.1697 33.8134C38.7338 33.8832 38.3393 34.1162 38.0788 34.4654C38.0788 34.4654 38.0788 34.4654 38.0788 34.4654C37.1359 35.7236 36.0339 36.8555 34.8119 37.8261C31.4859 40.483 27.2608 41.8688 23.0935 41.7257C13.5971 41.6496 5.63033 32.9286 6.16293 23.9368C6.24908 14.8985 14.5599 7.34197 23.0935 7.86455C27.349 7.98992 31.4046 9.87951 34.2032 12.9275C35.1162 13.9152 35.8977 15.0158 36.5226 16.1901Z" fill="#6B8B7E"/>
</svg>
