<svg width="14" height="14" viewBox="0 0 48 46" fill="none" xmlns="http://www.w3.org/2000/svg">
<path d="M6.31176 7.10765C14.6126 -2.0188 30.6095 -2.51565 39.6428 6.54222C44.1075 10.7753 46.8564 16.8795 47.052 23.1311C47.132 25.3739 46.9016 27.6347 46.3635 29.8303C46.0852 30.9912 45.3579 31.9819 44.3245 32.5793C43.4246 33.1001 42.3563 33.2846 41.3137 33.1145C39.9225 36.6522 37.5202 39.6092 34.4231 41.6975C34.3518 41.7664 34.275 41.8297 34.1916 41.885C32.5193 42.9878 30.6881 43.857 28.7659 44.4602C21.3566 46.8555 12.6034 44.8916 6.87621 39.3088C-1.94209 31.3028 -2.43791 15.8462 6.31176 7.10765ZM34.0315 12.1536C28.3651 5.77951 17.1929 5.28353 10.7942 11.5891C4.11207 17.5502 3.61619 29.2618 10.2297 35.9553C14.5075 40.586 21.4728 42.6199 27.7522 40.9485C29.3756 40.529 30.9434 39.8814 32.3996 39.0246C32.4784 38.9781 32.561 38.9389 32.6457 38.9065C35.0737 37.4312 37.3782 35.2714 39.5373 32.4358C38.9332 32.0494 38.4253 31.5286 38.0666 30.9084C37.4686 29.8753 37.3307 28.6531 37.6682 27.508C38.0823 26.1397 38.3078 24.7043 38.3332 23.259C38.4172 19.2238 36.8794 15.1623 34.0315 12.1536ZM23.0012 16.0012C27.4194 16.0013 31.0012 19.583 31.0012 24.0012C31.0011 28.4193 27.4193 32.0011 23.0012 32.0012C18.583 32.0012 15.0013 28.4194 15.0012 24.0012C15.0012 19.5829 18.5829 16.0012 23.0012 16.0012Z" fill="#9A9890"/>
</svg>
