<svg width="14" height="14" viewBox="0 0 46 47" fill="none" xmlns="http://www.w3.org/2000/svg">
<path d="M45.5066 23.4124C44.5066 23.4124 43.5066 23.4124 42.5066 23.4124C42.3405 25.3561 41.88 27.2373 41.1543 28.9849C38.2854 36.0554 30.9973 40.4766 24.0066 40.0374C15.1612 39.783 7.8177 31.8903 8.00659 23.4124C7.81771 14.9344 15.1612 7.04174 24.0066 6.78735C30.9973 6.34808 38.2854 10.7693 41.1543 17.8398C41.88 19.5874 42.3405 21.4686 42.5066 23.4124C43.5066 23.4124 44.5066 23.4124 45.5066 23.4124C45.6742 21.1611 45.4808 18.857 44.9111 16.6199C42.7583 7.58449 33.9061 0.22706 24.0066 0.0373535C11.5455 -0.735096 -0.322587 10.5838 0.0065918 23.4124C0.0065918 23.4124 0.0065918 23.4124 0.0065918 23.4124C-0.322588 36.2409 11.5455 47.5598 24.0066 46.7874C33.9061 46.5976 42.7583 39.2402 44.9111 30.2048C45.4808 27.9677 45.6742 25.6636 45.5066 23.4124ZM42.5066 23.4124H45.5066H42.5066Z" fill="#6B8B7E"/>
</svg>
