<svg width="53" height="201" viewBox="0 0 53 201" fill="none" xmlns="http://www.w3.org/2000/svg">
<path d="M26.45 153.12C20.793 153.12 15.3676 155.367 11.3675 159.367C7.36737 163.368 5.12012 168.793 5.12012 174.45C5.12012 180.107 7.36737 185.532 11.3675 189.533C15.3676 193.533 20.793 195.78 26.45 195.78C32.1071 195.78 37.5324 193.533 41.5326 189.533C45.5327 185.532 47.78 180.107 47.78 174.45C47.78 168.793 45.5327 163.368 41.5326 159.367C37.5324 155.367 32.1071 153.12 26.45 153.12Z" stroke="#2F4A3F" stroke-width="10.24" stroke-linecap="round" stroke-linejoin="round"/>
<path d="M26.45 5.12012C20.793 5.12012 15.3676 7.36736 11.3675 11.3675C7.36737 15.3676 5.12012 20.793 5.12012 26.45C5.12012 32.1071 7.36737 37.5324 11.3675 41.5326C15.3676 45.5327 20.793 47.78 26.45 47.78C32.1071 47.78 37.5324 45.5327 41.5326 41.5326C45.5327 37.5324 47.78 32.1071 47.78 26.45C47.78 20.793 45.5327 15.3676 41.5326 11.3675C37.5324 7.36736 32.1071 5.12012 26.45 5.12012Z" stroke="#2F4A3F" stroke-width="10.24" stroke-linecap="round" stroke-linejoin="round"/>
<path d="M26.45 79.1201C20.793 79.1201 15.3676 81.3674 11.3675 85.3675C7.36737 89.3676 5.12012 94.793 5.12012 100.45C5.12012 106.107 7.36737 111.532 11.3675 115.533C15.3676 119.533 20.793 121.78 26.45 121.78C32.1071 121.78 37.5324 119.533 41.5326 115.533C45.5327 111.532 47.78 106.107 47.78 100.45C47.78 94.793 45.5327 89.3676 41.5326 85.3675C37.5324 81.3674 32.1071 79.1201 26.45 79.1201Z" stroke="#2F4A3F" stroke-width="10.24" stroke-linecap="round" stroke-linejoin="round"/>
</svg>
