<svg width="203" height="203" viewBox="0 0 203 203" fill="none" xmlns="http://www.w3.org/2000/svg">
<path d="M83.4552 90.4552H40.7852V47.7852H83.4552V90.4552ZM125.785 134.455H168.455V91.7852H125.785V134.455ZM40.7852 154.455H62.1202V133.12H40.7852V154.455Z" stroke="#C48A5A" stroke-width="10.24" stroke-linecap="round" stroke-linejoin="round"/>
<path d="M58.4552 5.12012H15.7851C12.9566 5.12012 10.2439 6.24374 8.24381 8.24381C6.24374 10.2439 5.12012 12.9566 5.12012 15.7851V58.4552M197.12 58.4552V15.7851C197.12 12.9566 195.996 10.2439 193.996 8.24381C191.996 6.24374 189.284 5.12012 186.455 5.12012H143.785M5.12012 143.785V186.455C5.12012 189.284 6.24374 191.996 8.24381 193.996C10.2439 195.996 12.9566 197.12 15.7851 197.12H58.4552M143.785 197.12H186.455C189.284 197.12 191.996 195.996 193.996 193.996C195.996 191.996 197.12 189.284 197.12 186.455V143.785" stroke="#2F4A3F" stroke-width="10.24" stroke-linecap="round" stroke-linejoin="round"/>
</svg>
